custom-analysis
version=1
nRows=4
nColumns=98
inDegrees=no

This file contains tibia displacement and acting force.

Units are S.I. units (seconds, meters, Newtons, ...)
Angles are in degrees.

endheader
time	APT	SIT	knee_angle	aACL_R_force	pACL_R_force	aPCL_R_force	pPCL_R_force	aMCL_R_force	mMCL_R_force	pMCL_R_force	aLCL_R_force	mLCL_R_force	pLCL_R_force	aPCL_L_force	pPCL_L_force	aMCL_L_force	aLCL_L_force	aACL_R_length	pACL_R_length	aPCL_R_length	pPCL_R_length	aMCL_R_length	mMCL_R_length	pMCL_R_length	aLCL_R_length	mLCL_R_length	pLCL_R_length	aPCL_L_length	pPCL_L_length	aMCL_L_length	aLCL_L_length	aACL_R_strain	pACL_R_strain	aPCL_R_strain	pPCL_R_strain	aMCL_R_strain	mMCL_R_strain	pMCL_R_strain	aLCL_R_strain	mLCL_R_strain	pLCL_R_strain	aPCL_L_strain	pPCL_L_strain	aMCL_L_strain	aLCL_L_strain	femur_lat_meniscii_r.femur_lat_r.force.X	femur_lat_meniscii_r.femur_lat_r.force.Y	femur_lat_meniscii_r.femur_lat_r.force.Z	femur_lat_meniscii_r.femur_lat_r.torque.X	femur_lat_meniscii_r.femur_lat_r.torque.Y	femur_lat_meniscii_r.femur_lat_r.torque.Z	femur_lat_meniscii_r.meniscus_lat_r.force.X	femur_lat_meniscii_r.meniscus_lat_r.force.Y	femur_lat_meniscii_r.meniscus_lat_r.force.Z	femur_lat_meniscii_r.meniscus_lat_r.torque.X	femur_lat_meniscii_r.meniscus_lat_r.torque.Y	femur_lat_meniscii_r.meniscus_lat_r.torque.Z	femur_med_meniscii_r.femur_med_r.force.X	femur_med_meniscii_r.femur_med_r.force.Y	femur_med_meniscii_r.femur_med_r.force.Z	femur_med_meniscii_r.femur_med_r.torque.X	femur_med_meniscii_r.femur_med_r.torque.Y	femur_med_meniscii_r.femur_med_r.torque.Z	femur_med_meniscii_r.meniscus_med_r.force.X	femur_med_meniscii_r.meniscus_med_r.force.Y	femur_med_meniscii_r.meniscus_med_r.force.Z	femur_med_meniscii_r.meniscus_med_r.torque.X	femur_med_meniscii_r.meniscus_med_r.torque.Y	femur_med_meniscii_r.meniscus_med_r.torque.Z	femur_med_tibia_r.tibia_upper_r.force.X	femur_med_tibia_r.tibia_upper_r.force.Y	femur_med_tibia_r.tibia_upper_r.force.Z	femur_med_tibia_r.tibia_upper_r.torque.X	femur_med_tibia_r.tibia_upper_r.torque.Y	femur_med_tibia_r.tibia_upper_r.torque.Z	femur_med_tibia_r.femur_med_r.force.X	femur_med_tibia_r.femur_med_r.force.Y	femur_med_tibia_r.femur_med_r.force.Z	femur_med_tibia_r.femur_med_r.torque.X	femur_med_tibia_r.femur_med_r.torque.Y	femur_med_tibia_r.femur_med_r.torque.Z	femur_lat_tibia_r.tibia_upper_r.force.X	femur_lat_tibia_r.tibia_upper_r.force.Y	femur_lat_tibia_r.tibia_upper_r.force.Z	femur_lat_tibia_r.tibia_upper_r.torque.X	femur_lat_tibia_r.tibia_upper_r.torque.Y	femur_lat_tibia_r.tibia_upper_r.torque.Z	femur_lat_tibia_r.femur_lat_r.force.X	femur_lat_tibia_r.femur_lat_r.force.Y	femur_lat_tibia_r.femur_lat_r.force.Z	femur_lat_tibia_r.femur_lat_r.torque.X	femur_lat_tibia_r.femur_lat_r.torque.Y	femur_lat_tibia_r.femur_lat_r.torque.Z	femur_lat_meniscii_force_r	femur_med_meniscii_force_r	femur_lat_tibia_force_r	femur_med_tibia_force_r
      0.00000000	      0.00000000	      0.00000000	      1.66574369	     26.23636035	     57.15717797	      0.00000000	      0.00000000	      0.00000000	      3.83340630	     46.40137098	      0.67560592	      0.00000000	      1.56026721	      0.00000000	      0.00000000	      0.00000001	      0.00000000	      0.03283933	      0.02724628	      0.02922628	      0.02963990	      0.05630769	      0.06122731	      0.06351768	      0.05657962	      0.05503431	      0.05319875	      0.01525851	      0.01651186	      0.06550154	      0.04489616	      0.05914543	      0.08729809	     -0.06010633	     -0.00829433	     -0.06196062	      0.02397939	      0.08155708	      0.01076188	     -0.02280408	      0.01635464	      0.00000079	     -0.32847694	      0.00000060	     -0.00000086	    -21.57778605	     10.79313173	      0.58543435	     -0.27807930	     -0.79844578	      4.50282251	     21.57778605	    -10.79313173	     -0.58543435	      0.33422827	      0.68609707	     -0.36202548	     -9.98414446	     -3.49763628	     -0.64189172	     -0.07708605	      0.44869095	     -1.23302340	      9.98414446	      3.49763628	      0.64189172	      0.05921307	     -0.14918567	     -0.12096530	      0.00000000	      0.00000000	      0.00000000	      0.00000000	      0.00000000	      0.00000000	      0.00000000	      0.00000000	      0.00000000	      0.00000000	      0.00000000	      0.00000000	      0.00000000	      0.00000000	      0.00000000	      0.00000000	      0.00000000	      0.00000000	      0.00000000	      0.00000000	      0.00000000	      0.00000000	      0.00000000	      0.00000000	     24.13369588	     10.59851995	      0.00000000	      0.00000000
      0.00100000	      0.00000090	      0.00013589	      1.66582733	    -65.53184229	    -40.80285900	      0.00000000	      0.00000000	      0.00000000	   -158.84721769	   -117.51775030	   -195.62624875	      0.00000000	   -198.24019086	      0.00000000	      0.00000000	      0.00000001	      0.00000000	      0.03271228	      0.02711923	      0.02912395	      0.02953090	      0.05618295	      0.06109980	      0.06339024	      0.05645688	      0.05490999	      0.05307403	      0.01525851	      0.01651186	      0.06550154	      0.04489616	      0.05504780	      0.08222823	     -0.06339709	     -0.01194134	     -0.06403869	      0.02184693	      0.07938706	      0.00856928	     -0.02501136	      0.01397190	      0.00000079	     -0.32847694	      0.00000060	     -0.00000086	    -52.39516057	      5.83128806	      8.20991551	     -0.16967002	     -4.80133297	      2.33150867	     52.39516057	     -5.83128806	     -8.20991551	      0.19417284	      1.91409426	     -0.12440317	    -29.32042633	     -2.90092736	      5.21016330	      0.08075987	     -1.68643638	     -0.50238837	     29.32042633	      2.90092736	     -5.21016330	     -0.09961851	     -0.16634488	     -0.63533549	      0.00000000	      0.00000000	      0.00000000	      0.00000000	      0.00000000	      0.00000000	      0.00000000	      0.00000000	      0.00000000	      0.00000000	      0.00000000	      0.00000000	      0.00000000	      0.00000000	      0.00000000	      0.00000000	      0.00000000	      0.00000000	      0.00000000	      0.00000000	      0.00000000	      0.00000000	      0.00000000	      0.00000000	     53.35409529	     29.92070489	      0.00000000	      0.00000000
      0.00193046	      0.00001722	      0.00040690	      1.66999588	   -103.43035202	    -87.04590990	      0.00000000	      0.00000000	      0.00000000	   -212.03179716	   -173.41031345	   -259.96352193	      0.00000000	   -264.48998468	      0.00000000	      0.00000000	      0.00000001	      0.00000000	      0.03245481	      0.02685919	      0.02892272	      0.02931546	      0.05594013	      0.06084971	      0.06314024	      0.05621651	      0.05466639	      0.05282933	      0.01525851	      0.01651186	      0.06550154	      0.04489616	      0.04674362	      0.07185073	     -0.06986830	     -0.01914970	     -0.06808389	      0.01766433	      0.07513007	      0.00427512	     -0.02933688	      0.00929704	      0.00000079	     -0.32847694	      0.00000060	     -0.00000086	   -108.81190283	      4.22656588	     28.21771762	     -0.16557598	    -14.66814422	      1.58287030	    108.81190283	     -4.22656588	    -28.21771762	      0.16696922	      4.37156427	     -0.03523362	    -76.07236701	      0.20941136	     24.10434504	      0.56419912	     -8.79401634	      1.78461385	     76.07236701	     -0.20941136	    -24.10434504	     -0.58044473	     -0.08812888	     -1.75871896	    161.80075271	      1.28711831	      6.48221228	      0.10378575	     -1.57013166	     -2.53061446	   -161.80075271	     -1.28711831	     -6.48221228	     -0.10572677	      4.89311077	      1.91924766	      0.00000000	      0.00000000	      0.00000000	      0.00000000	      0.00000000	      0.00000000	      0.00000000	      0.00000000	      0.00000000	      0.00000000	      0.00000000	      0.00000000	    112.49059358	     79.80017747	      0.00000000	    161.93566416
      0.00273588	      0.00006211	      0.00064901	      1.68228763	    -77.72819279	    -67.01385284	      0.00000000	      0.00000000	      0.00000000	   -157.26066977	   -121.22183325	   -199.80426328	      0.00000000	   -204.21644063	      0.00000000	      0.00000000	      0.00000001	      0.00000000	      0.03222736	      0.02662576	      0.02873999	      0.02911951	      0.05573121	      0.06063181	      0.06292245	      0.05600369	      0.05445073	      0.05261219	      0.01525851	      0.01651186	      0.06550154	      0.04489616	      0.03940800	      0.06253572	     -0.07574495	     -0.02570566	     -0.07156435	      0.01402007	      0.07142164	      0.00047318	     -0.03316620	      0.00514860	      0.00000079	     -0.32847694	      0.00000060	     -0.00000086	   -150.74614281	     21.60570882	     51.49029789	     -0.56808450	    -25.54853791	      9.08044515	    150.74614281	    -21.60570882	    -51.49029789	      0.64062648	      6.51115474	     -0.87984041	   -132.08468264	     12.41719262	     50.39485991	      1.16985580	    -18.69859041	      7.57435082	    132.08468264	    -12.41719262	    -50.39485991	     -1.14266774	     -0.01134552	     -2.89300029	   1382.49848714	    -50.96617585	     44.33638300	      0.13614840	    -13.50100678	    -23.58512473	  -1382.49848714	     50.96617585	    -44.33638300	      0.15056414	     37.48370559	     42.21377112	      0.00000000	      0.00000000	      0.00000000	      0.00000000	      0.00000000	      0.00000000	      0.00000000	      0.00000000	      0.00000000	      0.00000000	      0.00000000	      0.00000000	    160.75589259	    141.91614413	      0.00000000	   1384.14787247
